# xmcd
# Copyright (C) 1995-1998 Ti Kan
#
# Track frame offsets:
#       150
#       16975
#       37229
#
# Disc length: 677 seconds
#
# Revision: 0
# Processed by: cddbd v1.5.2PL0 Copyright (c) Steve Scherf et al.
# Submitted via: CD-Transfer v1.0
#
DISCID=1f02a303
DTITLE=Nouvelle Vague - Eisbaer (Single)
DYEAR=06
DGENRE=
TTITLE0=Eisbaer
TTITLE1=O Pamela
TTITLE2=Sweet And Tender Hooligan (Live)
EXTD=
EXTT0=
EXTT1=
EXTT2=
PLAYORDER=
